<svg width="1271" height="396" viewBox="0 0 1271 396" fill="none" xmlns="http://www.w3.org/2000/svg">
<path d="M640.762 291.623H601.177L580.065 264.827C559.359 263.609 542.984 256.775 530.939 244.324C519.03 231.738 513.075 215.295 513.075 194.995C513.075 173.748 519.639 156.763 532.766 144.042C545.893 131.321 563.69 124.96 586.155 124.96C609.026 124.96 627.026 131.321 640.153 144.042C653.416 156.628 660.047 173.612 660.047 194.995C660.047 211.506 655.987 225.58 647.867 237.219C639.882 248.722 628.514 256.707 613.763 261.173L640.762 291.623ZM554.487 226.663C560.577 232.753 571.133 235.798 586.155 235.798C601.177 235.798 611.801 232.753 618.026 226.663C624.387 220.573 627.567 210.017 627.567 194.995C627.567 179.973 624.387 169.417 618.026 163.327C611.801 157.237 601.177 154.192 586.155 154.192C571.133 154.192 560.577 157.237 554.487 163.327C548.397 169.417 545.352 179.973 545.352 194.995C545.352 210.017 548.397 220.573 554.487 226.663ZM719.407 265.03C705.603 265.03 695.115 261.308 687.942 253.865C680.769 246.286 677.183 236.542 677.183 224.633V161.297H707.633V214.483C707.633 222.738 709.595 228.693 713.52 232.347C717.58 236.001 724.347 237.828 733.82 237.828C743.564 237.828 750.466 235.866 754.526 231.941C758.721 228.016 760.819 221.656 760.819 212.859V161.297H791.269V263H762.849V231.941H761.225C759.736 241.414 755.473 249.331 748.436 255.692C741.534 261.917 731.858 265.03 719.407 265.03ZM842.16 265.03C831.198 265.03 822.605 262.662 816.379 257.925C810.154 253.053 807.041 246.354 807.041 237.828C807.041 222.4 818.003 213.536 839.927 211.235L883.572 206.769V202.912C883.572 196.416 881.948 192.018 878.7 189.717C875.452 187.281 869.701 186.063 861.445 186.063C853.596 186.063 847.98 187.281 844.596 189.717C841.348 192.018 839.724 196.01 839.724 201.694V202.506H809.071V201.897C809.071 189.176 814.011 178.89 823.89 171.041C833.77 163.192 847.032 159.267 863.678 159.267C880.189 159.267 892.64 163.192 901.03 171.041C909.421 178.89 913.616 189.649 913.616 203.318V263H885.196V239.655H883.572C881.136 247.64 876.4 253.865 869.362 258.331C862.325 262.797 853.258 265.03 842.16 265.03ZM837.694 235.798C837.694 240.941 842.093 243.512 850.889 243.512C861.581 243.512 869.565 242.091 874.843 239.249C880.257 236.272 883.166 231.264 883.572 224.227L848.25 228.287C841.213 228.828 837.694 231.332 837.694 235.798ZM963.561 263H933.111V161.297H961.328V192.559H963.155C964.643 183.086 968.771 175.169 975.538 168.808C982.44 162.447 992.116 159.267 1004.57 159.267C1017.96 159.267 1028.11 163.056 1035.02 170.635C1042.05 178.078 1045.57 187.755 1045.57 199.664V263H1015.12V209.814C1015.12 201.559 1013.16 195.672 1009.24 192.153C1005.45 188.499 998.95 186.672 989.748 186.672C980.274 186.672 973.508 188.634 969.448 192.559C965.523 196.484 963.561 202.844 963.561 211.641V263ZM1136.7 263H1111.52C1086.08 263 1073.36 250.752 1073.36 226.257V186.469H1057.32V161.297H1073.36V141.606H1103.81V161.297H1136.7V186.469H1103.81V222.806C1103.81 227.813 1104.82 231.197 1106.85 232.956C1109.02 234.715 1112.88 235.595 1118.43 235.595H1136.7V263ZM1171.65 297.51H1155V269.902H1179.97C1186.47 269.902 1190.73 267.737 1192.76 263.406L1143.03 161.297H1177.54L1199.05 207.784L1207.58 231.738H1209.61L1217.73 207.581L1237.01 161.297H1270.92L1220.57 270.308C1215.83 280.729 1209.81 287.834 1202.5 291.623C1195.2 295.548 1184.91 297.51 1171.65 297.51Z" fill="#010203"/>
<path d="M0 197.952C0 88.6264 88.6264 0 197.952 0C307.278 0 395.905 88.6263 395.905 197.952V395.905H197.952C88.6264 395.905 0 307.278 0 197.952Z" fill="#29D280"/>
<path d="M227.75 325.766C215.018 329.142 202.288 329.159 189.484 328.903C175.64 328.627 162.559 324.937 149.949 319.898C135.149 313.984 121.553 305.778 109.743 294.868C98.8696 284.822 89.187 273.704 82.2678 260.629C77.8653 252.309 74.3478 243.382 71.5877 234.374C68.9859 225.882 67.6655 216.965 66.249 208.159C65.644 204.399 66.344 200.444 66.2483 196.583C65.8407 180.138 69.5533 164.531 75.6373 149.384C80.0132 138.489 85.8361 128.386 93.0901 119.21C97.5896 113.519 102.473 108.018 107.828 103.138C120.035 92.012 133.662 82.9434 149.25 77.1283C160.814 72.8148 172.491 68.7787 184.985 68.403C193.744 68.1395 202.603 67.5781 211.261 68.5442C221.677 69.7065 232.105 71.7195 241.847 75.9557C249.026 79.0778 256.295 82.1186 263.098 85.9515C271.99 90.961 280.249 96.8884 287.538 104.249C295.885 112.678 303.772 121.374 310.032 131.488C320.265 148.021 326.849 165.815 328.659 185.246C330.09 200.6 329.076 215.827 325.11 230.726C320.909 246.507 314.227 261.215 304.489 274.417C304.047 275.016 303.6 275.611 303.148 276.206C298.962 281.701 290.728 282.254 285.89 277.323C283.677 275.067 281.667 272.612 279.46 270.351C278.308 269.172 278.021 268.293 279.123 266.814C282.695 262.022 286.286 257.226 289.532 252.212C296.087 242.089 300.486 231.034 302.313 219.106C303.47 211.551 304.59 203.906 304.644 196.294C304.69 189.792 303.788 183.133 302.228 176.808C300.281 168.913 297.884 160.988 294.492 153.624C290.163 144.229 284.258 135.604 276.803 128.312C270.975 122.611 265.029 116.922 258.524 112.045C247.548 103.815 235.314 97.8268 221.708 95.3187C213.894 93.8783 205.963 92.5322 198.051 92.2971C185.664 91.9289 173.612 94.288 161.846 98.4784C150.922 102.369 141.107 108.116 131.979 115.029C121.195 123.197 112.697 133.515 105.622 145.024C98.4655 156.666 93.6411 169.212 91.8238 182.737C89.7662 198.052 90.467 213.199 95.0882 228.157C98.999 240.816 105.126 252.118 113.54 262.247C117.363 266.85 120.852 271.887 125.336 275.748C131.62 281.159 138.463 286.02 145.499 290.426C150.971 293.853 156.919 296.727 162.982 298.959C175.26 303.478 188.081 305.836 201.185 305.188C211.692 304.669 222.181 303.433 232.123 299.489C234.408 298.583 236.782 297.85 239.176 297.302C240.105 297.09 241.521 297.264 242.163 297.858C244.463 299.986 246.52 302.376 248.683 304.652C249.706 305.728 250.802 306.736 251.795 307.837C253.303 309.508 254.651 311.334 256.248 312.91C258.495 315.128 257.133 316.176 255.053 316.865C246.046 319.852 237.012 322.761 227.75 325.766Z" fill="#010203"/>
<path d="M248.923 241.666C256.436 232.523 261.253 222.429 263.854 211C265.236 204.924 264.865 198.979 264.791 193.022C264.703 185.923 262.553 179.108 259.725 172.541C253.943 159.113 244.383 148.984 232.365 141.02C224.573 135.857 215.812 133.187 206.641 131.893C191.748 129.79 177.623 132.324 164.685 140.021C154.092 146.323 145.481 154.718 139.177 165.505C134.6 173.337 132.193 181.733 130.962 190.582C129.115 203.861 131.788 216.493 137.517 228.334C140.259 234.002 144.249 239.201 148.341 244.05C154.035 250.797 161.194 256.083 169.154 259.783C174.702 262.361 180.866 263.701 186.851 265.218C190.254 266.08 193.858 266.603 197.355 266.526C201.862 266.427 206.343 265.446 210.856 265.132C212.105 265.045 213.739 265.642 214.652 266.503C217.152 268.86 219.355 271.532 221.69 274.067C226.512 279.303 224.803 287.56 217.801 288.845C213.421 289.649 208.987 290.063 204.544 290.475C193.353 291.513 182.502 289.811 171.914 286.486C162.194 283.434 152.94 279.251 144.609 273.233C128.102 261.311 116.27 245.823 109.836 226.512C107.835 220.507 106.953 214.068 106.1 207.754C103.432 188.014 108.4 169.702 117.82 152.596C122.556 143.995 128.715 136.246 136.692 130.18C141.213 126.741 145.413 122.84 150.131 119.711C156.641 115.394 163.877 112.461 171.483 110.601C176.431 109.391 181.41 108.254 186.429 107.409C189.021 106.972 191.732 107.237 194.39 107.193C201.979 107.068 209.546 107.006 217.019 108.806C225.899 110.946 234.506 113.957 242.212 118.759C249.498 123.298 256.489 128.449 263 134.041C267.097 137.56 270.299 142.221 273.508 146.655C281.708 157.986 286.739 170.779 288.855 184.498C290.009 191.98 290.51 199.808 289.67 207.297C288.309 219.445 285.069 231.284 279.011 242.109C274.751 249.721 269.455 256.572 263.296 262.741C261.268 264.772 260.573 266.218 263.186 268.714C268.226 273.528 272.783 278.852 277.487 284.013C283.243 290.328 289.032 296.618 294.636 303.067C297.928 306.855 297.723 313.348 294.544 317.388C291.313 321.495 285.501 322.537 280.585 320.668C275.395 318.694 272.69 314.226 269.205 310.559C260.768 301.68 252.522 292.619 244.176 283.653C234.952 273.746 225.716 263.85 216.455 253.977C213.683 251.023 210.765 248.206 207.996 245.249C202.781 239.681 203.845 230.621 209.915 226.044C213.772 223.135 222.067 224.007 225.125 227.575C230.17 233.46 235.428 239.168 240.741 244.815C243.533 247.782 244.608 247.559 247.077 244.196C247.653 243.411 248.204 242.606 248.923 241.666Z" fill="#010203"/>
</svg>


















