<svg width="1239" height="396" viewBox="0 0 1239 396" fill="none" xmlns="http://www.w3.org/2000/svg">
<path d="M576.688 282.695C529.408 282.695 499.76 250.801 499.76 199.028C499.76 147.593 529.408 115.249 576.688 115.249C623.856 115.249 653.505 147.593 653.505 199.028C653.505 228.564 643.847 252.036 626.327 265.962L636.659 280.562C638.681 283.594 639.467 285.84 639.467 288.872C639.467 295.498 634.413 300.215 627.338 300.215C622.621 300.215 619.477 298.418 616.557 294.038L605.214 278.091C596.566 281.235 587.021 282.695 576.688 282.695ZM576.688 258.213C581.518 258.213 586.122 257.427 590.277 256.191L581.293 243.501C579.271 240.469 578.485 237.998 578.485 235.415C578.485 228.901 583.314 224.297 589.94 224.297C594.208 224.297 597.016 225.757 599.711 229.463L608.92 242.153C618.466 232.495 623.969 217.671 623.969 199.028C623.969 162.866 605.551 139.731 576.688 139.731C547.714 139.731 529.408 162.866 529.408 199.028C529.408 235.19 547.714 258.213 576.688 258.213ZM715.497 282.134C689.667 282.134 673.271 265.4 673.271 237.886V173.311C673.271 163.989 678.998 158.599 687.196 158.599C695.395 158.599 701.234 163.989 701.234 173.423V232.271C701.234 249.341 709.545 258.55 725.268 258.55C741.439 258.55 751.435 247.095 751.435 229.8V173.311C751.435 163.989 757.274 158.599 765.473 158.599C773.559 158.599 779.398 163.989 779.398 173.423V268.096C779.398 277.08 774.008 282.246 766.034 282.246C757.948 282.246 752.445 277.08 752.445 268.096V259.336H751.884C745.595 273.823 733.578 282.134 715.497 282.134ZM837.235 281.909C814.213 281.909 797.479 267.422 797.479 245.972C797.479 224.858 813.764 212.168 842.738 210.371L874.296 208.574V200.039C874.296 187.573 865.873 180.386 852.06 180.386C841.166 180.386 834.091 184.092 827.128 194.312C824.208 198.13 820.502 199.927 815.785 199.927C808.935 199.927 803.993 195.435 803.993 188.696C803.993 186.113 804.667 183.643 805.902 181.06C811.967 167.246 830.385 158.486 853.183 158.486C882.719 158.486 901.923 174.097 901.923 198.018V268.208C901.923 277.192 896.195 282.246 888.334 282.246C880.697 282.246 875.419 277.642 874.97 269.331V261.021H874.408C867.558 273.936 852.621 281.909 837.235 281.909ZM845.771 260.796C861.493 260.796 874.296 250.239 874.296 235.864V226.768L846.669 228.452C833.192 229.351 825.443 235.415 825.443 244.849C825.443 254.619 833.642 260.796 845.771 260.796ZM938.422 282.246C930.224 282.246 924.496 276.968 924.496 267.534V172.749C924.496 164.102 929.55 158.599 937.86 158.599C946.059 158.599 951.674 164.102 951.674 172.749V181.06H952.235C958.637 166.909 970.99 158.711 989.296 158.711C1015.58 158.711 1030.51 175.557 1030.51 203.071V267.534C1030.51 276.968 1024.78 282.246 1016.59 282.246C1008.39 282.246 1002.55 276.968 1002.55 267.534V208.687C1002.55 191.841 994.687 182.407 978.739 182.407C962.68 182.407 952.46 193.975 952.46 211.045V267.534C952.46 276.968 946.62 282.246 938.422 282.246ZM1060.72 250.576V182.52H1053.2C1046.23 182.52 1041.97 178.364 1041.97 171.626C1041.97 165 1046.23 160.957 1053.2 160.957H1060.72V145.122C1060.72 136.138 1066.11 130.522 1074.76 130.522C1083.29 130.522 1088.69 136.138 1088.69 145.122V160.957H1101.6C1108.56 160.957 1112.83 165 1112.83 171.626C1112.83 178.364 1108.56 182.52 1101.6 182.52H1088.69V244.512C1088.69 253.496 1091.83 257.427 1099.92 258.101L1101.94 258.325C1109.35 258.999 1113.17 262.144 1113.17 268.657C1113.17 276.855 1105.98 281.235 1093.18 281.235H1092.05C1071.28 281.235 1060.72 270.903 1060.72 250.576ZM1147.31 324.248C1134.73 324.248 1127.88 319.531 1127.88 310.996C1127.88 305.269 1131.92 301.562 1138.44 301.562C1140.79 301.562 1141.92 301.675 1144.5 301.675C1150.79 301.675 1157.3 298.418 1161.46 287.974L1163.48 282.134L1124.51 179.6C1123.5 176.792 1122.94 173.872 1122.94 171.626C1122.94 163.989 1129.12 158.599 1137.31 158.599C1144.39 158.599 1148.32 161.743 1150.68 169.604L1179.09 256.191H1179.54L1207.95 169.492C1210.31 161.855 1214.35 158.599 1221.43 158.599C1229.4 158.599 1235.02 163.877 1235.02 171.289C1235.02 173.535 1234.46 176.68 1233.45 179.375L1194.25 284.268C1183.47 313.916 1171.12 324.248 1147.31 324.248Z" fill="#18202C"/>
<rect width="395.905" height="395.905" rx="69" fill="#58B387"/>
<path d="M225.247 315.061C213.544 318.165 201.841 318.18 190.07 317.945C177.343 317.69 165.318 314.299 153.726 309.666C140.12 304.229 127.621 296.686 116.765 286.656C106.769 277.421 97.8675 267.2 91.5067 255.18C87.4595 247.532 84.2258 239.326 81.6885 231.044C79.2967 223.238 78.0828 215.04 76.7806 206.945C76.2245 203.488 76.868 199.853 76.78 196.303C76.4053 181.186 79.8183 166.838 85.4113 152.913C89.434 142.898 94.787 133.611 101.456 125.175C105.592 119.943 110.081 114.886 115.004 110.4C126.226 100.172 138.753 91.8351 153.083 86.4892C163.713 82.5238 174.449 78.8135 185.934 78.4681C193.986 78.2259 202.13 77.7098 210.09 78.598C219.665 79.6664 229.251 81.517 238.207 85.4113C244.807 88.2814 251.489 91.0769 257.743 94.6004C265.917 99.2056 273.509 104.655 280.21 111.421C287.884 119.17 295.134 127.164 300.889 136.462C310.296 151.661 316.349 168.019 318.013 185.882C319.329 199.996 318.396 213.994 314.75 227.691C310.889 242.198 304.745 255.719 295.794 267.856C295.387 268.407 294.977 268.954 294.56 269.5C290.712 274.552 283.143 275.06 278.695 270.527V270.527C276.661 268.453 274.814 266.197 272.784 264.118C271.726 263.034 271.461 262.226 272.475 260.867C275.758 256.461 279.06 252.052 282.044 247.443C288.069 238.137 292.114 227.974 293.793 217.008C294.857 210.064 295.886 203.036 295.936 196.038C295.978 190.061 295.149 183.938 293.715 178.125C291.925 170.866 289.722 163.581 286.603 156.811C282.624 148.175 277.195 140.246 270.342 133.543C264.984 128.301 259.519 123.072 253.538 118.588C243.448 111.022 232.201 105.517 219.693 103.212C212.51 101.887 205.219 100.65 197.946 100.434C186.558 100.095 175.479 102.264 164.663 106.116C154.62 109.693 145.597 114.976 137.206 121.331C127.292 128.84 119.48 138.325 112.976 148.905C106.397 159.608 101.962 171.141 100.291 183.575C98.3999 197.654 99.0441 211.578 103.292 225.329C106.888 236.967 112.52 247.357 120.255 256.668C123.77 260.9 126.977 265.53 131.1 269.079C136.876 274.053 143.166 278.523 149.634 282.573C154.665 285.723 160.133 288.365 165.707 290.417C176.994 294.571 188.78 296.739 200.826 296.143C210.486 295.666 220.128 294.53 229.268 290.905C231.368 290.072 233.551 289.398 235.751 288.894C236.605 288.699 237.907 288.859 238.498 289.405C240.612 291.361 242.502 293.558 244.491 295.651C245.431 296.64 246.439 297.567 247.353 298.579C248.739 300.114 249.978 301.793 251.446 303.242C253.511 305.281 252.259 306.244 250.348 306.878C242.067 309.624 233.762 312.299 225.247 315.061Z" fill="white"/>
<path d="M244.712 237.747C251.619 229.343 256.048 220.063 258.438 209.556C259.709 203.97 259.367 198.505 259.3 193.029C259.219 186.503 257.243 180.238 254.643 174.201C249.327 161.857 240.538 152.546 229.49 145.224C222.327 140.477 214.273 138.024 205.842 136.833C192.151 134.9 179.166 137.23 167.273 144.306C157.535 150.099 149.619 157.817 143.823 167.733C139.616 174.933 137.403 182.652 136.271 190.787C134.574 202.994 137.03 214.606 142.297 225.492C144.818 230.702 148.486 235.481 152.248 239.939C157.482 246.141 164.063 251.001 171.381 254.402C176.481 256.773 182.148 258.004 187.649 259.398C190.778 260.191 194.091 260.672 197.306 260.601C201.449 260.51 205.569 259.609 209.717 259.32C210.866 259.24 212.368 259.788 213.207 260.58C215.505 262.747 217.531 265.203 219.677 267.533V267.533C224.11 272.347 222.538 279.938 216.102 281.119C212.075 281.858 207.999 282.239 203.915 282.618C193.627 283.572 183.651 282.007 173.919 278.951C164.982 276.145 156.476 272.299 148.817 266.767C133.642 255.807 122.765 241.569 116.85 223.817C115.011 218.296 114.2 212.376 113.415 206.572C110.963 188.426 115.53 171.592 124.19 155.866C128.543 147.959 134.205 140.835 141.538 135.259C145.695 132.098 149.556 128.512 153.893 125.635C159.878 121.666 166.53 118.97 173.522 117.26C178.071 116.147 182.648 115.103 187.262 114.325C189.645 113.924 192.137 114.167 194.58 114.127C201.557 114.012 208.513 113.955 215.383 115.61C223.546 117.578 231.459 120.345 238.543 124.76C245.24 128.933 251.667 133.668 257.653 138.808C261.42 142.043 264.363 146.328 267.313 150.404C274.852 160.82 279.476 172.581 281.421 185.193C282.482 192.072 282.943 199.268 282.171 206.153C280.919 217.32 277.941 228.204 272.372 238.155C268.456 245.152 263.588 251.451 257.925 257.121C256.061 258.988 255.422 260.318 257.824 262.613C262.458 267.038 266.646 271.932 270.971 276.676C276.262 282.483 281.584 288.264 286.736 294.193C289.762 297.675 289.573 303.645 286.651 307.359C283.681 311.134 278.338 312.092 273.819 310.373C269.047 308.559 266.561 304.452 263.358 301.081C255.601 292.918 248.021 284.588 240.348 276.346C231.869 267.238 223.378 258.141 214.864 249.065C212.316 246.349 209.633 243.76 207.088 241.042C202.294 235.923 203.272 227.594 208.852 223.386C212.398 220.712 220.024 221.514 222.835 224.793C227.472 230.204 232.306 235.451 237.19 240.642C239.757 243.37 240.745 243.165 243.015 240.073C243.545 239.351 244.051 238.612 244.712 237.747Z" fill="white"/>
</svg>
