<svg width="1239" height="396" viewBox="0 0 1239 396" fill="none" xmlns="http://www.w3.org/2000/svg">
<path d="M593.015 282.695C546.296 282.695 517.097 250.688 517.097 199.028C517.097 147.593 546.296 115.249 593.015 115.249C639.621 115.249 668.933 147.593 668.933 199.028C668.933 229.351 658.825 253.159 640.744 267.197L651.975 282.808C653.884 285.503 654.558 287.412 654.558 290.332C654.558 296.284 649.953 300.552 643.664 300.552C639.621 300.552 636.701 298.867 634.118 295.161L621.765 277.866C613.117 281.123 603.459 282.695 593.015 282.695ZM593.015 260.684C598.405 260.684 603.459 259.897 608.176 258.438L598.293 244.624C596.384 242.041 595.71 239.683 595.71 237.324C595.71 231.372 600.09 227.217 606.042 227.217C610.085 227.217 612.556 228.564 615.139 232.046L625.808 246.646C636.813 236.426 643.103 219.917 643.103 199.028C643.103 161.182 623.786 137.261 593.015 137.261C562.243 137.261 542.814 161.182 542.814 199.028C542.814 236.763 562.243 260.684 593.015 260.684ZM730.925 282.134C705.207 282.134 689.484 265.4 689.484 238.335V172.637C689.484 164.551 694.426 159.722 701.613 159.722C708.688 159.722 713.742 164.551 713.742 172.637V233.618C713.742 251.587 722.277 261.245 739.011 261.245C756.53 261.245 767.087 249.116 767.087 230.698V172.637C767.087 164.551 772.141 159.722 779.216 159.722C786.403 159.722 791.345 164.551 791.345 172.637V269.78C791.345 277.305 786.74 282.134 779.777 282.134C772.814 282.134 768.098 277.305 768.098 269.893V260.01H767.536C761.022 274.16 749.006 282.134 730.925 282.134ZM849.968 282.021C826.833 282.021 810.549 267.646 810.549 246.421C810.549 225.757 826.496 213.066 854.46 211.494L886.916 209.585V200.488C886.916 187.349 878.044 179.487 863.22 179.487C851.54 179.487 843.791 183.643 837.053 194.424C834.582 198.018 831.438 199.59 827.17 199.59C821.105 199.59 816.726 195.547 816.726 189.482C816.726 187.012 817.399 184.316 818.859 181.621C825.036 168.257 842.893 159.722 864.118 159.722C892.756 159.722 911.062 174.883 911.062 198.579V269.893C911.062 277.529 906.232 282.134 899.382 282.134C892.644 282.134 888.039 277.754 887.814 270.566V260.571H887.253C880.402 273.711 865.354 282.021 849.968 282.021ZM856.594 262.817C873.552 262.817 886.916 251.138 886.916 235.752V226.431L857.717 228.228C843.229 229.238 835.031 235.64 835.031 245.747C835.031 256.079 843.679 262.817 856.594 262.817ZM946.774 282.134C939.587 282.134 934.646 277.305 934.646 269.331V171.963C934.646 164.551 939.138 159.722 946.213 159.722C953.176 159.722 958.005 164.551 958.005 172.075V181.396H958.566C964.968 167.92 977.321 159.834 995.515 159.834C1021.57 159.834 1036.51 176.455 1036.51 203.521V269.331C1036.51 277.305 1031.45 282.134 1024.26 282.134C1017.19 282.134 1012.14 277.305 1012.14 269.331V208.237C1012.14 190.493 1003.83 180.723 986.979 180.723C969.909 180.723 958.903 192.852 958.903 211.157V269.331C958.903 277.305 953.85 282.134 946.774 282.134ZM1067.05 251.699V181.06H1058.52C1052.23 181.06 1048.41 177.466 1048.41 171.514C1048.41 165.449 1052.23 161.855 1058.52 161.855H1067.05V144.336C1067.05 136.587 1071.88 131.421 1079.29 131.421C1086.59 131.421 1091.42 136.587 1091.42 144.336V161.855H1105.24C1111.53 161.855 1115.34 165.562 1115.34 171.514C1115.34 177.466 1111.53 181.06 1105.24 181.06H1091.42V246.309C1091.42 255.742 1094.68 260.01 1103.44 260.684L1105.35 260.796C1112.31 261.47 1115.79 264.277 1115.79 270.005C1115.79 277.305 1110.18 281.011 1098.27 281.011H1097.04C1077.16 281.011 1067.05 271.24 1067.05 251.699ZM1148.47 324.023C1137.24 324.023 1131.07 319.868 1131.07 312.344C1131.07 307.178 1134.66 303.809 1140.5 303.809C1143.08 303.809 1143.98 303.921 1146.79 303.921C1153.53 303.921 1160.38 300.215 1164.76 288.086L1167 281.235L1127.47 177.803C1126.57 175.332 1126.12 172.861 1126.12 170.952C1126.12 164.326 1131.4 159.722 1138.48 159.722C1144.54 159.722 1148.02 162.305 1150.16 169.043L1180.26 257.988H1180.59L1210.8 169.043C1212.82 162.417 1216.19 159.722 1222.37 159.722C1229.33 159.722 1234.16 164.326 1234.16 170.84C1234.16 172.749 1233.71 175.22 1232.93 177.578L1191.94 285.952C1181.49 314.365 1170.37 324.023 1148.47 324.023Z" fill="white"/>
<rect width="395.905" height="395.905" rx="69" fill="#58B387"/>
<path d="M225.247 315.061C213.544 318.165 201.841 318.18 190.07 317.945C177.343 317.69 165.318 314.299 153.726 309.666C140.12 304.229 127.621 296.686 116.765 286.656C106.769 277.421 97.8675 267.2 91.5067 255.18C87.4595 247.532 84.2258 239.326 81.6885 231.044C79.2967 223.238 78.0828 215.04 76.7806 206.945C76.2245 203.488 76.868 199.853 76.78 196.303C76.4053 181.186 79.8183 166.838 85.4113 152.913C89.434 142.898 94.787 133.611 101.456 125.175C105.592 119.943 110.081 114.886 115.004 110.4C126.226 100.172 138.753 91.8351 153.083 86.4892C163.713 82.5238 174.449 78.8135 185.934 78.4681C193.986 78.2259 202.13 77.7098 210.09 78.598C219.665 79.6664 229.251 81.517 238.207 85.4113C244.807 88.2814 251.489 91.0769 257.743 94.6004C265.917 99.2056 273.509 104.655 280.21 111.421C287.884 119.17 295.134 127.164 300.889 136.462C310.296 151.661 316.349 168.019 318.013 185.882C319.329 199.996 318.396 213.994 314.75 227.691C310.889 242.198 304.745 255.719 295.794 267.856C295.387 268.407 294.977 268.954 294.56 269.5C290.712 274.552 283.143 275.06 278.695 270.527V270.527C276.661 268.453 274.814 266.197 272.784 264.118C271.726 263.034 271.461 262.226 272.475 260.867C275.758 256.461 279.06 252.052 282.044 247.443C288.069 238.137 292.114 227.974 293.793 217.008C294.857 210.064 295.886 203.036 295.936 196.038C295.978 190.061 295.149 183.938 293.715 178.125C291.925 170.866 289.722 163.581 286.603 156.811C282.624 148.175 277.195 140.246 270.342 133.543C264.984 128.301 259.519 123.072 253.538 118.588C243.448 111.022 232.201 105.517 219.693 103.212C212.51 101.887 205.219 100.65 197.946 100.434C186.558 100.095 175.479 102.264 164.663 106.116C154.62 109.693 145.597 114.976 137.206 121.331C127.292 128.84 119.48 138.325 112.976 148.905C106.397 159.608 101.962 171.141 100.291 183.575C98.3999 197.654 99.0441 211.578 103.292 225.329C106.888 236.967 112.52 247.357 120.255 256.668C123.77 260.9 126.977 265.53 131.1 269.079C136.876 274.053 143.166 278.523 149.634 282.573C154.665 285.723 160.133 288.365 165.707 290.417C176.994 294.571 188.78 296.739 200.826 296.143C210.486 295.666 220.128 294.53 229.268 290.905C231.368 290.072 233.551 289.398 235.751 288.894C236.605 288.699 237.907 288.859 238.498 289.405C240.612 291.361 242.502 293.558 244.491 295.651C245.431 296.64 246.439 297.567 247.353 298.579C248.739 300.114 249.978 301.793 251.446 303.242C253.511 305.281 252.259 306.244 250.348 306.878C242.067 309.624 233.762 312.299 225.247 315.061Z" fill="white"/>
<path d="M244.712 237.747C251.619 229.343 256.048 220.063 258.438 209.556C259.709 203.97 259.367 198.505 259.3 193.029C259.219 186.503 257.243 180.238 254.643 174.201C249.327 161.857 240.538 152.546 229.49 145.224C222.327 140.477 214.273 138.024 205.842 136.833C192.151 134.9 179.166 137.23 167.273 144.306C157.535 150.099 149.619 157.817 143.823 167.733C139.616 174.933 137.403 182.652 136.271 190.787C134.574 202.994 137.03 214.606 142.297 225.492C144.818 230.702 148.486 235.481 152.248 239.939C157.482 246.141 164.063 251.001 171.381 254.402C176.481 256.773 182.148 258.004 187.649 259.398C190.778 260.191 194.091 260.672 197.306 260.601C201.449 260.51 205.569 259.609 209.717 259.32C210.866 259.24 212.368 259.788 213.207 260.58C215.505 262.747 217.531 265.203 219.677 267.533V267.533C224.11 272.347 222.538 279.938 216.102 281.119C212.075 281.858 207.999 282.239 203.915 282.618C193.627 283.572 183.651 282.007 173.919 278.951C164.982 276.145 156.476 272.299 148.817 266.767C133.642 255.807 122.765 241.569 116.85 223.817C115.011 218.296 114.2 212.376 113.415 206.572C110.963 188.426 115.53 171.592 124.19 155.866C128.543 147.959 134.205 140.835 141.538 135.259C145.695 132.098 149.556 128.512 153.893 125.635C159.878 121.666 166.53 118.97 173.522 117.26C178.071 116.147 182.648 115.103 187.262 114.325C189.645 113.924 192.137 114.167 194.58 114.127C201.557 114.012 208.513 113.955 215.383 115.61C223.546 117.578 231.459 120.345 238.543 124.76C245.24 128.933 251.667 133.668 257.653 138.808C261.42 142.043 264.363 146.328 267.313 150.404C274.852 160.82 279.476 172.581 281.421 185.193C282.482 192.072 282.943 199.268 282.171 206.153C280.919 217.32 277.941 228.204 272.372 238.155C268.456 245.152 263.588 251.451 257.925 257.121C256.061 258.988 255.422 260.318 257.824 262.613C262.458 267.038 266.646 271.932 270.971 276.676C276.262 282.483 281.584 288.264 286.736 294.193C289.762 297.675 289.573 303.645 286.651 307.359C283.681 311.134 278.338 312.092 273.819 310.373C269.047 308.559 266.561 304.452 263.358 301.081C255.601 292.918 248.021 284.588 240.348 276.346C231.869 267.238 223.378 258.141 214.864 249.065C212.316 246.349 209.633 243.76 207.088 241.042C202.294 235.923 203.272 227.594 208.852 223.386C212.398 220.712 220.024 221.514 222.835 224.793C227.472 230.204 232.306 235.451 237.19 240.642C239.757 243.37 240.745 243.165 243.015 240.073C243.545 239.351 244.051 238.612 244.712 237.747Z" fill="white"/>
</svg>
