<!-- <svg width="1239" height="396" viewBox="0 0 1239 396" fill="none" xmlns="http://www.w3.org/2000/svg">
<path d="M576.688 282.695C529.408 282.695 499.76 250.801 499.76 199.028C499.76 147.593 529.408 115.249 576.688 115.249C623.856 115.249 653.505 147.593 653.505 199.028C653.505 228.564 643.847 252.036 626.327 265.962L636.659 280.562C638.681 283.594 639.467 285.84 639.467 288.872C639.467 295.498 634.413 300.215 627.338 300.215C622.621 300.215 619.477 298.418 616.557 294.038L605.214 278.091C596.566 281.235 587.021 282.695 576.688 282.695ZM576.688 258.213C581.518 258.213 586.122 257.427 590.277 256.191L581.293 243.501C579.271 240.469 578.485 237.998 578.485 235.415C578.485 228.901 583.314 224.297 589.94 224.297C594.208 224.297 597.016 225.757 599.711 229.463L608.92 242.153C618.466 232.495 623.969 217.671 623.969 199.028C623.969 162.866 605.551 139.731 576.688 139.731C547.714 139.731 529.408 162.866 529.408 199.028C529.408 235.19 547.714 258.213 576.688 258.213ZM715.497 282.134C689.667 282.134 673.271 265.4 673.271 237.886V173.311C673.271 163.989 678.998 158.599 687.196 158.599C695.395 158.599 701.234 163.989 701.234 173.423V232.271C701.234 249.341 709.545 258.55 725.268 258.55C741.439 258.55 751.435 247.095 751.435 229.8V173.311C751.435 163.989 757.274 158.599 765.473 158.599C773.559 158.599 779.398 163.989 779.398 173.423V268.096C779.398 277.08 774.008 282.246 766.034 282.246C757.948 282.246 752.445 277.08 752.445 268.096V259.336H751.884C745.595 273.823 733.578 282.134 715.497 282.134ZM837.235 281.909C814.213 281.909 797.479 267.422 797.479 245.972C797.479 224.858 813.764 212.168 842.738 210.371L874.296 208.574V200.039C874.296 187.573 865.873 180.386 852.06 180.386C841.166 180.386 834.091 184.092 827.128 194.312C824.208 198.13 820.502 199.927 815.785 199.927C808.935 199.927 803.993 195.435 803.993 188.696C803.993 186.113 804.667 183.643 805.902 181.06C811.967 167.246 830.385 158.486 853.183 158.486C882.719 158.486 901.923 174.097 901.923 198.018V268.208C901.923 277.192 896.195 282.246 888.334 282.246C880.697 282.246 875.419 277.642 874.97 269.331V261.021H874.408C867.558 273.936 852.621 281.909 837.235 281.909ZM845.771 260.796C861.493 260.796 874.296 250.239 874.296 235.864V226.768L846.669 228.452C833.192 229.351 825.443 235.415 825.443 244.849C825.443 254.619 833.642 260.796 845.771 260.796ZM938.422 282.246C930.224 282.246 924.496 276.968 924.496 267.534V172.749C924.496 164.102 929.55 158.599 937.86 158.599C946.059 158.599 951.674 164.102 951.674 172.749V181.06H952.235C958.637 166.909 970.99 158.711 989.296 158.711C1015.58 158.711 1030.51 175.557 1030.51 203.071V267.534C1030.51 276.968 1024.78 282.246 1016.59 282.246C1008.39 282.246 1002.55 276.968 1002.55 267.534V208.687C1002.55 191.841 994.687 182.407 978.739 182.407C962.68 182.407 952.46 193.975 952.46 211.045V267.534C952.46 276.968 946.62 282.246 938.422 282.246ZM1060.72 250.576V182.52H1053.2C1046.23 182.52 1041.97 178.364 1041.97 171.626C1041.97 165 1046.23 160.957 1053.2 160.957H1060.72V145.122C1060.72 136.138 1066.11 130.522 1074.76 130.522C1083.29 130.522 1088.69 136.138 1088.69 145.122V160.957H1101.6C1108.56 160.957 1112.83 165 1112.83 171.626C1112.83 178.364 1108.56 182.52 1101.6 182.52H1088.69V244.512C1088.69 253.496 1091.83 257.427 1099.92 258.101L1101.94 258.325C1109.35 258.999 1113.17 262.144 1113.17 268.657C1113.17 276.855 1105.98 281.235 1093.18 281.235H1092.05C1071.28 281.235 1060.72 270.903 1060.72 250.576ZM1147.31 324.248C1134.73 324.248 1127.88 319.531 1127.88 310.996C1127.88 305.269 1131.92 301.562 1138.44 301.562C1140.79 301.562 1141.92 301.675 1144.5 301.675C1150.79 301.675 1157.3 298.418 1161.46 287.974L1163.48 282.134L1124.51 179.6C1123.5 176.792 1122.94 173.872 1122.94 171.626C1122.94 163.989 1129.12 158.599 1137.31 158.599C1144.39 158.599 1148.32 161.743 1150.68 169.604L1179.09 256.191H1179.54L1207.95 169.492C1210.31 161.855 1214.35 158.599 1221.43 158.599C1229.4 158.599 1235.02 163.877 1235.02 171.289C1235.02 173.535 1234.46 176.68 1233.45 179.375L1194.25 284.268C1183.47 313.916 1171.12 324.248 1147.31 324.248Z" fill="#18202C"/>
<rect width="395.905" height="395.905" rx="69" fill="#58B387"/>
<path d="M225.247 315.061C213.544 318.165 201.841 318.18 190.07 317.945C177.343 317.69 165.318 314.299 153.726 309.666C140.12 304.229 127.621 296.686 116.765 286.656C106.769 277.421 97.8675 267.2 91.5067 255.18C87.4595 247.532 84.2258 239.326 81.6885 231.044C79.2967 223.238 78.0828 215.04 76.7806 206.945C76.2245 203.488 76.868 199.853 76.78 196.303C76.4053 181.186 79.8183 166.838 85.4113 152.913C89.434 142.898 94.787 133.611 101.456 125.175C105.592 119.943 110.081 114.886 115.004 110.4C126.226 100.172 138.753 91.8351 153.083 86.4892C163.713 82.5238 174.449 78.8135 185.934 78.4681C193.986 78.2259 202.13 77.7098 210.09 78.598C219.665 79.6664 229.251 81.517 238.207 85.4113C244.807 88.2814 251.489 91.0769 257.743 94.6004C265.917 99.2056 273.509 104.655 280.21 111.421C287.884 119.17 295.134 127.164 300.889 136.462C310.296 151.661 316.349 168.019 318.013 185.882C319.329 199.996 318.396 213.994 314.75 227.691C310.889 242.198 304.745 255.719 295.794 267.856C295.387 268.407 294.977 268.954 294.56 269.5C290.712 274.552 283.143 275.06 278.695 270.527V270.527C276.661 268.453 274.814 266.197 272.784 264.118C271.726 263.034 271.461 262.226 272.475 260.867C275.758 256.461 279.06 252.052 282.044 247.443C288.069 238.137 292.114 227.974 293.793 217.008C294.857 210.064 295.886 203.036 295.936 196.038C295.978 190.061 295.149 183.938 293.715 178.125C291.925 170.866 289.722 163.581 286.603 156.811C282.624 148.175 277.195 140.246 270.342 133.543C264.984 128.301 259.519 123.072 253.538 118.588C243.448 111.022 232.201 105.517 219.693 103.212C212.51 101.887 205.219 100.65 197.946 100.434C186.558 100.095 175.479 102.264 164.663 106.116C154.62 109.693 145.597 114.976 137.206 121.331C127.292 128.84 119.48 138.325 112.976 148.905C106.397 159.608 101.962 171.141 100.291 183.575C98.3999 197.654 99.0441 211.578 103.292 225.329C106.888 236.967 112.52 247.357 120.255 256.668C123.77 260.9 126.977 265.53 131.1 269.079C136.876 274.053 143.166 278.523 149.634 282.573C154.665 285.723 160.133 288.365 165.707 290.417C176.994 294.571 188.78 296.739 200.826 296.143C210.486 295.666 220.128 294.53 229.268 290.905C231.368 290.072 233.551 289.398 235.751 288.894C236.605 288.699 237.907 288.859 238.498 289.405C240.612 291.361 242.502 293.558 244.491 295.651C245.431 296.64 246.439 297.567 247.353 298.579C248.739 300.114 249.978 301.793 251.446 303.242C253.511 305.281 252.259 306.244 250.348 306.878C242.067 309.624 233.762 312.299 225.247 315.061Z" fill="white"/>
<path d="M244.712 237.747C251.619 229.343 256.048 220.063 258.438 209.556C259.709 203.97 259.367 198.505 259.3 193.029C259.219 186.503 257.243 180.238 254.643 174.201C249.327 161.857 240.538 152.546 229.49 145.224C222.327 140.477 214.273 138.024 205.842 136.833C192.151 134.9 179.166 137.23 167.273 144.306C157.535 150.099 149.619 157.817 143.823 167.733C139.616 174.933 137.403 182.652 136.271 190.787C134.574 202.994 137.03 214.606 142.297 225.492C144.818 230.702 148.486 235.481 152.248 239.939C157.482 246.141 164.063 251.001 171.381 254.402C176.481 256.773 182.148 258.004 187.649 259.398C190.778 260.191 194.091 260.672 197.306 260.601C201.449 260.51 205.569 259.609 209.717 259.32C210.866 259.24 212.368 259.788 213.207 260.58C215.505 262.747 217.531 265.203 219.677 267.533V267.533C224.11 272.347 222.538 279.938 216.102 281.119C212.075 281.858 207.999 282.239 203.915 282.618C193.627 283.572 183.651 282.007 173.919 278.951C164.982 276.145 156.476 272.299 148.817 266.767C133.642 255.807 122.765 241.569 116.85 223.817C115.011 218.296 114.2 212.376 113.415 206.572C110.963 188.426 115.53 171.592 124.19 155.866C128.543 147.959 134.205 140.835 141.538 135.259C145.695 132.098 149.556 128.512 153.893 125.635C159.878 121.666 166.53 118.97 173.522 117.26C178.071 116.147 182.648 115.103 187.262 114.325C189.645 113.924 192.137 114.167 194.58 114.127C201.557 114.012 208.513 113.955 215.383 115.61C223.546 117.578 231.459 120.345 238.543 124.76C245.24 128.933 251.667 133.668 257.653 138.808C261.42 142.043 264.363 146.328 267.313 150.404C274.852 160.82 279.476 172.581 281.421 185.193C282.482 192.072 282.943 199.268 282.171 206.153C280.919 217.32 277.941 228.204 272.372 238.155C268.456 245.152 263.588 251.451 257.925 257.121C256.061 258.988 255.422 260.318 257.824 262.613C262.458 267.038 266.646 271.932 270.971 276.676C276.262 282.483 281.584 288.264 286.736 294.193C289.762 297.675 289.573 303.645 286.651 307.359C283.681 311.134 278.338 312.092 273.819 310.373C269.047 308.559 266.561 304.452 263.358 301.081C255.601 292.918 248.021 284.588 240.348 276.346C231.869 267.238 223.378 258.141 214.864 249.065C212.316 246.349 209.633 243.76 207.088 241.042C202.294 235.923 203.272 227.594 208.852 223.386C212.398 220.712 220.024 221.514 222.835 224.793C227.472 230.204 232.306 235.451 237.19 240.642C239.757 243.37 240.745 243.165 243.015 240.073C243.545 239.351 244.051 238.612 244.712 237.747Z" fill="white"/>
</svg> -->

<svg width="1256" height="396" viewBox="0 0 1256 396" fill="none" xmlns="http://www.w3.org/2000/svg">
<path d="M593.688 282.695C546.408 282.695 516.76 250.801 516.76 199.028C516.76 147.593 546.408 115.249 593.688 115.249C640.856 115.249 670.505 147.593 670.505 199.028C670.505 228.564 660.847 252.036 643.327 265.962L653.659 280.562C655.681 283.594 656.467 285.84 656.467 288.872C656.467 295.498 651.413 300.215 644.338 300.215C639.621 300.215 636.477 298.418 633.557 294.038L622.214 278.091C613.566 281.235 604.021 282.695 593.688 282.695ZM593.688 258.213C598.518 258.213 603.122 257.427 607.277 256.191L598.293 243.501C596.271 240.469 595.485 237.998 595.485 235.415C595.485 228.901 600.314 224.297 606.94 224.297C611.208 224.297 614.016 225.757 616.711 229.463L625.92 242.153C635.466 232.495 640.969 217.671 640.969 199.028C640.969 162.866 622.551 139.731 593.688 139.731C564.714 139.731 546.408 162.866 546.408 199.028C546.408 235.19 564.714 258.213 593.688 258.213ZM732.497 282.134C706.667 282.134 690.271 265.4 690.271 237.886V173.311C690.271 163.989 695.998 158.599 704.196 158.599C712.395 158.599 718.234 163.989 718.234 173.423V232.271C718.234 249.341 726.545 258.55 742.268 258.55C758.439 258.55 768.435 247.095 768.435 229.8V173.311C768.435 163.989 774.274 158.599 782.473 158.599C790.559 158.599 796.398 163.989 796.398 173.423V268.096C796.398 277.08 791.008 282.246 783.034 282.246C774.948 282.246 769.445 277.08 769.445 268.096V259.336H768.884C762.595 273.823 750.578 282.134 732.497 282.134ZM854.235 281.909C831.213 281.909 814.479 267.422 814.479 245.972C814.479 224.858 830.764 212.168 859.738 210.371L891.296 208.574V200.039C891.296 187.573 882.873 180.386 869.06 180.386C858.166 180.386 851.091 184.092 844.128 194.312C841.208 198.13 837.502 199.927 832.785 199.927C825.935 199.927 820.993 195.435 820.993 188.696C820.993 186.113 821.667 183.643 822.902 181.06C828.967 167.246 847.385 158.486 870.183 158.486C899.719 158.486 918.923 174.097 918.923 198.018V268.208C918.923 277.192 913.195 282.246 905.334 282.246C897.697 282.246 892.419 277.642 891.97 269.331V261.021H891.408C884.558 273.936 869.621 281.909 854.235 281.909ZM862.771 260.796C878.493 260.796 891.296 250.239 891.296 235.864V226.768L863.669 228.452C850.192 229.351 842.443 235.415 842.443 244.849C842.443 254.619 850.642 260.796 862.771 260.796ZM955.422 282.246C947.224 282.246 941.496 276.968 941.496 267.534V172.749C941.496 164.102 946.55 158.599 954.86 158.599C963.059 158.599 968.674 164.102 968.674 172.749V181.06H969.235C975.637 166.909 987.99 158.711 1006.3 158.711C1032.58 158.711 1047.51 175.557 1047.51 203.071V267.534C1047.51 276.968 1041.78 282.246 1033.59 282.246C1025.39 282.246 1019.55 276.968 1019.55 267.534V208.687C1019.55 191.841 1011.69 182.407 995.739 182.407C979.68 182.407 969.46 193.975 969.46 211.045V267.534C969.46 276.968 963.62 282.246 955.422 282.246ZM1077.72 250.576V182.52H1070.2C1063.23 182.52 1058.97 178.364 1058.97 171.626C1058.97 165 1063.23 160.957 1070.2 160.957H1077.72V145.122C1077.72 136.138 1083.11 130.522 1091.76 130.522C1100.29 130.522 1105.69 136.138 1105.69 145.122V160.957H1118.6C1125.56 160.957 1129.83 165 1129.83 171.626C1129.83 178.364 1125.56 182.52 1118.6 182.52H1105.69V244.512C1105.69 253.496 1108.83 257.427 1116.92 258.101L1118.94 258.325C1126.35 258.999 1130.17 262.144 1130.17 268.657C1130.17 276.855 1122.98 281.235 1110.18 281.235H1109.05C1088.28 281.235 1077.72 270.903 1077.72 250.576ZM1164.31 324.248C1151.73 324.248 1144.88 319.531 1144.88 310.996C1144.88 305.269 1148.92 301.562 1155.44 301.562C1157.79 301.562 1158.92 301.675 1161.5 301.675C1167.79 301.675 1174.3 298.418 1178.46 287.974L1180.48 282.134L1141.51 179.6C1140.5 176.792 1139.94 173.872 1139.94 171.626C1139.94 163.989 1146.12 158.599 1154.31 158.599C1161.39 158.599 1165.32 161.743 1167.68 169.604L1196.09 256.191H1196.54L1224.95 169.492C1227.31 161.855 1231.35 158.599 1238.43 158.599C1246.4 158.599 1252.02 163.877 1252.02 171.289C1252.02 173.535 1251.46 176.68 1250.45 179.375L1211.25 284.268C1200.47 313.916 1188.12 324.248 1164.31 324.248Z" fill="#010203"/>
<path d="M0 197.952C0 88.6264 88.6264 0 197.952 0V0C307.278 0 395.905 88.6263 395.905 197.952V395.905H197.952C88.6265 395.905 0 307.278 0 197.952V197.952Z" fill="#29D280"/>
<path d="M227.75 325.766C215.018 329.142 202.288 329.159 189.484 328.903C175.64 328.627 162.559 324.937 149.949 319.898C135.149 313.984 121.553 305.778 109.743 294.868C98.8696 284.822 89.187 273.704 82.2678 260.629C77.8653 252.309 74.3478 243.382 71.5877 234.374C68.9859 225.882 67.6655 216.965 66.249 208.159C65.644 204.399 66.344 200.444 66.2483 196.583C65.8407 180.138 69.5533 164.531 75.6373 149.384C80.0132 138.489 85.8361 128.386 93.0901 119.21C97.5896 113.519 102.473 108.018 107.828 103.138C120.035 92.012 133.662 82.9434 149.25 77.1283C160.814 72.8148 172.491 68.7787 184.985 68.403C193.744 68.1395 202.603 67.5781 211.261 68.5442C221.677 69.7065 232.105 71.7195 241.847 75.9557C249.026 79.0778 256.295 82.1186 263.098 85.9515C271.99 90.961 280.249 96.8884 287.538 104.249C295.885 112.678 303.772 121.374 310.032 131.488C320.265 148.021 326.849 165.815 328.659 185.246C330.09 200.6 329.076 215.827 325.11 230.726C320.909 246.507 314.227 261.215 304.489 274.417C304.047 275.016 303.6 275.611 303.148 276.206C298.962 281.701 290.728 282.254 285.89 277.323V277.323C283.677 275.067 281.667 272.612 279.46 270.351C278.308 269.172 278.021 268.293 279.123 266.814C282.695 262.022 286.286 257.226 289.532 252.212C296.087 242.089 300.486 231.034 302.313 219.106C303.47 211.552 304.59 203.906 304.644 196.294C304.69 189.792 303.788 183.133 302.228 176.808C300.281 168.913 297.884 160.988 294.492 153.624C290.163 144.229 284.258 135.604 276.803 128.312C270.975 122.611 265.029 116.922 258.524 112.045C247.548 103.815 235.314 97.8268 221.708 95.3187C213.894 93.8783 205.963 92.5322 198.051 92.2971C185.664 91.9289 173.612 94.288 161.846 98.4784C150.922 102.369 141.107 108.116 131.979 115.029C121.195 123.197 112.697 133.515 105.622 145.024C98.4655 156.666 93.6411 169.212 91.8238 182.737C89.7662 198.052 90.467 213.199 95.0882 228.157C98.999 240.816 105.126 252.118 113.54 262.247C117.363 266.85 120.852 271.887 125.336 275.748C131.62 281.159 138.463 286.02 145.499 290.426C150.971 293.853 156.919 296.727 162.982 298.959C175.26 303.478 188.081 305.836 201.185 305.188C211.692 304.669 222.181 303.433 232.123 299.489C234.408 298.583 236.782 297.85 239.176 297.302C240.105 297.09 241.521 297.264 242.164 297.858C244.463 299.986 246.519 302.376 248.683 304.652C249.706 305.728 250.802 306.736 251.795 307.837C253.303 309.508 254.651 311.334 256.248 312.91C258.495 315.128 257.133 316.176 255.053 316.865C246.046 319.852 237.012 322.761 227.75 325.766Z" fill="#010203"/>
<path d="M248.923 241.666C256.436 232.523 261.253 222.429 263.854 211C265.236 204.924 264.865 198.979 264.791 193.022C264.703 185.923 262.553 179.108 259.725 172.541C253.943 159.113 244.383 148.984 232.365 141.02C224.573 135.857 215.812 133.187 206.641 131.893C191.748 129.79 177.623 132.324 164.685 140.021C154.092 146.323 145.481 154.718 139.177 165.505C134.6 173.337 132.193 181.733 130.962 190.582C129.115 203.861 131.788 216.493 137.517 228.334C140.259 234.002 144.249 239.201 148.341 244.05C154.035 250.797 161.194 256.083 169.154 259.783C174.702 262.361 180.866 263.701 186.851 265.218C190.254 266.08 193.858 266.603 197.355 266.526C201.862 266.427 206.343 265.446 210.856 265.132C212.105 265.045 213.739 265.642 214.652 266.503C217.152 268.86 219.355 271.532 221.69 274.067V274.067C226.512 279.303 224.803 287.56 217.801 288.845C213.421 289.649 208.987 290.063 204.544 290.475C193.353 291.513 182.502 289.811 171.914 286.486C162.194 283.434 152.94 279.251 144.609 273.233C128.102 261.311 116.27 245.823 109.836 226.512C107.835 220.507 106.953 214.068 106.1 207.754C103.432 188.014 108.4 169.702 117.82 152.596C122.556 143.995 128.715 136.246 136.692 130.18C141.213 126.741 145.413 122.84 150.131 119.711C156.641 115.394 163.877 112.461 171.483 110.601C176.431 109.391 181.41 108.254 186.429 107.409C189.021 106.972 191.732 107.237 194.39 107.193C201.979 107.068 209.546 107.006 217.019 108.806C225.899 110.946 234.506 113.957 242.212 118.759C249.498 123.298 256.489 128.449 263 134.041C267.097 137.56 270.299 142.221 273.508 146.655C281.708 157.986 286.739 170.779 288.855 184.498C290.009 191.98 290.51 199.808 289.67 207.297C288.309 219.445 285.069 231.284 279.011 242.109C274.751 249.721 269.455 256.572 263.296 262.741C261.268 264.772 260.573 266.218 263.186 268.714C268.226 273.528 272.783 278.852 277.487 284.013C283.243 290.328 289.032 296.618 294.636 303.067C297.928 306.855 297.723 313.348 294.544 317.388C291.313 321.495 285.501 322.537 280.585 320.668C275.395 318.694 272.69 314.226 269.205 310.559C260.768 301.68 252.522 292.619 244.176 283.653C234.952 273.746 225.716 263.85 216.455 253.977C213.683 251.023 210.765 248.206 207.996 245.249C202.781 239.681 203.845 230.621 209.915 226.044C213.772 223.135 222.067 224.007 225.125 227.575C230.17 233.46 235.428 239.168 240.741 244.815C243.533 247.782 244.608 247.559 247.077 244.196C247.653 243.411 248.204 242.606 248.923 241.666Z" fill="#010203"/>
</svg>













